<svg width="206" height="2889" viewBox="0 0 206 2889" fill="none" xmlns="http://www.w3.org/2000/svg">
<ellipse cx="102.616" cy="2785.62" rx="102.616" ry="102.616" fill="#FF0000"/>
<ellipse cx="102.616" cy="2302.62" rx="102.616" ry="102.616" fill="white"/>
<rect y="2516.59" width="205.232" height="117.024" fill="white"/>
<path d="M0 2516.7H102.613L0 2428.38V2516.7Z" fill="#7C7C7C"/>
<path d="M102.613 2516.7H205.232V2428.38L102.613 2516.7Z" fill="#7C7C7C"/>
<path d="M204.718 2535.99C208.335 2555.44 192.502 2577.62 167.134 2587.28C139.759 2597.7 111.651 2589.59 104.361 2569.16C100.531 2558.44 103.201 2546.46 110.555 2535.99H204.718Z" fill="black"/>
<path d="M0.513839 2535.99C-3.1027 2555.44 12.7305 2577.62 38.0982 2587.28C65.4732 2597.7 93.5807 2589.59 100.871 2569.16C104.701 2558.44 102.031 2546.47 94.6766 2535.99H0.513839Z" fill="black"/>
<path d="M144.287 2535.99H67.157V2554.72H144.287V2535.99Z" fill="black"/>
<ellipse cx="102.616" cy="2051.62" rx="102.616" ry="102.616" fill="#FF0000"/>
<ellipse cx="102.616" cy="1568.62" rx="102.616" ry="102.616" fill="white"/>
<rect y="1782.59" width="205.232" height="117.024" fill="white"/>
<path d="M0 1782.7H102.613L0 1694.38V1782.7Z" fill="#7C7C7C"/>
<path d="M102.613 1782.7H205.232V1694.38L102.613 1782.7Z" fill="#7C7C7C"/>
<path d="M204.718 1801.99C208.335 1821.44 192.502 1843.62 167.134 1853.28C139.759 1863.7 111.651 1855.59 104.361 1835.16C100.531 1824.44 103.201 1812.46 110.555 1801.99H204.718Z" fill="black"/>
<path d="M0.513839 1801.99C-3.1027 1821.44 12.7305 1843.62 38.0982 1853.28C65.4732 1863.7 93.5807 1855.59 100.871 1835.16C104.701 1824.44 102.031 1812.47 94.6766 1801.99H0.513839Z" fill="black"/>
<path d="M144.287 1801.99H67.157V1820.72H144.287V1801.99Z" fill="black"/>
<ellipse cx="102.616" cy="1319.62" rx="102.616" ry="102.616" fill="#FF0000"/>
<ellipse cx="102.616" cy="836.616" rx="102.616" ry="102.616" fill="white"/>
<rect y="1050.59" width="205.232" height="117.024" fill="white"/>
<path d="M0 1050.7H102.613L0 962.384V1050.7Z" fill="#7C7C7C"/>
<path d="M102.613 1050.7H205.232V962.384L102.613 1050.7Z" fill="#7C7C7C"/>
<path d="M204.718 1069.99C208.335 1089.44 192.502 1111.62 167.134 1121.28C139.759 1131.7 111.651 1123.59 104.361 1103.16C100.531 1092.44 103.201 1080.46 110.555 1069.99H204.718Z" fill="black"/>
<path d="M0.513839 1069.99C-3.1027 1089.44 12.7305 1111.62 38.0982 1121.28C65.4732 1131.7 93.5807 1123.59 100.871 1103.16C104.701 1092.44 102.031 1080.47 94.6766 1069.99H0.513839Z" fill="black"/>
<path d="M144.287 1069.99H67.157V1088.72H144.287V1069.99Z" fill="black"/>
<ellipse cx="102.616" cy="585.616" rx="102.616" ry="102.616" fill="#FF0000"/>
<ellipse cx="102.616" cy="102.616" rx="102.616" ry="102.616" fill="white"/>
<rect y="316.592" width="205.232" height="117.024" fill="white"/>
<path d="M0 316.697H102.613L0 228.384V316.697Z" fill="#7C7C7C"/>
<path d="M102.613 316.697H205.232V228.384L102.613 316.697Z" fill="#7C7C7C"/>
<path d="M204.718 335.992C208.335 355.443 192.502 377.624 167.134 387.279C139.759 397.698 111.651 389.587 104.361 369.16C100.531 358.442 103.201 346.465 110.555 335.992H204.718Z" fill="black"/>
<path d="M0.513839 335.992C-3.1027 355.443 12.7305 377.625 38.0982 387.279C65.4732 397.699 93.5807 389.588 100.871 369.161C104.701 358.443 102.031 346.465 94.6766 335.992H0.513839Z" fill="black"/>
<path d="M144.287 335.992H67.157V354.718H144.287V335.992Z" fill="black"/>
</svg>
