<svg width="467" height="199" viewBox="0 0 467 199" fill="none" xmlns="http://www.w3.org/2000/svg">
<path d="M13.4844 26.9336C13.7578 26.9336 13.8945 26.7695 13.8945 26.4551V12.7148C13.8945 12.5371 13.8809 12.2227 13.8398 11.7715C13.7988 11.3203 13.7852 11.0605 13.7852 11.0059L13.8945 10.9785L19.6367 19.6602C19.7324 19.8242 19.8828 19.9062 20.0605 19.9062H21.209C21.3867 19.9062 21.5234 19.8242 21.6328 19.6602L27.3613 11.0059L27.457 11.0332C27.3887 11.2109 27.3613 11.7168 27.3613 12.5371V26.4824C27.3613 26.7832 27.498 26.9336 27.7578 26.9336H28.8242C29.1113 26.9336 29.248 26.7695 29.248 26.4551V8.36719C29.248 8.05273 29.1113 7.88867 28.8516 7.88867H27.5391C27.3477 7.88867 27.1836 7.99805 27.0605 8.23047L20.6758 17.9238L14.2363 8.20312C14.0996 7.99805 13.9355 7.88867 13.7578 7.88867H12.3633C12.1309 7.88867 12.0215 8.02539 12.0215 8.3125V26.4824C12.0215 26.7832 12.1582 26.9336 12.418 26.9336H13.4844ZM45.7363 7.88867C45.5039 7.88867 45.3535 8.01172 45.2578 8.25781L41.0332 19.5371L35.0859 8.20312C34.9629 7.99805 34.7988 7.88867 34.6211 7.88867H33.2676C33.0625 7.90234 32.9668 7.99805 32.9668 8.17578C32.9668 8.29883 33.0078 8.44922 33.1035 8.62695L40.1309 21.8887L39.9121 22.5039C39.2422 24.2676 38.2168 25.1426 36.8496 25.1426H36.4668C36.2207 25.1426 36.0977 25.2656 36.0977 25.5117V26.5645C36.0977 26.8105 36.2344 26.9336 36.4941 26.9336H36.8906C39.0371 26.9336 40.5137 25.7031 41.6211 22.791L47.1309 8.59961C47.1992 8.4082 47.2402 8.25781 47.2402 8.14844C47.2402 7.9707 47.1582 7.88867 46.9941 7.88867H45.7363ZM57.3984 27.1797C59.3262 27.1797 60.8848 26.6191 62.1016 25.4844C63.3047 24.3633 63.9062 23.0508 63.9062 21.5605C63.9062 21.2461 63.7695 21.082 63.4824 21.082H62.4434C62.1426 21.082 61.9922 21.2461 61.9922 21.5605C61.9785 22.5859 61.541 23.4883 60.6797 24.2812C59.8184 25.0879 58.7383 25.4844 57.4395 25.4844C55.5938 25.4844 54.1582 24.7051 53.1465 23.1465C52.1211 21.5879 51.6152 19.6875 51.6152 17.4453C51.6152 15.1895 52.1211 13.2754 53.1465 11.7031C54.1582 10.1309 55.5938 9.35156 57.4395 9.35156C58.6152 9.35156 59.5859 9.70703 60.3379 10.4043C61.0898 11.1152 61.4727 11.9629 61.4863 12.9609C61.4863 13.2754 61.6367 13.4395 61.9375 13.4395H63.0039C63.2637 13.4395 63.4004 13.2754 63.4004 12.9609C63.4004 11.4844 62.8535 10.2266 61.7461 9.1875C60.6387 8.16211 59.2305 7.64258 57.4941 7.64258C55.0195 7.64258 53.0918 8.55859 51.6973 10.4043C50.2891 12.25 49.5918 14.6016 49.5918 17.4727C49.5918 19.2227 49.8789 20.8223 50.4395 22.2578C51 23.6934 51.875 24.8828 53.0918 25.7988C54.3086 26.7148 55.7441 27.1797 57.3984 27.1797ZM73.668 7.88867C71.5625 7.88867 69.9219 8.43555 68.7598 9.54297C67.5977 10.6504 67.0098 12.0859 67.0098 13.8633C67.0098 16.6934 68.6641 18.7031 71.3984 19.4551L66.1895 25.9766C65.957 26.291 65.834 26.5098 65.834 26.6191C65.8203 26.8242 65.9434 26.9336 66.1895 26.9336H67.4883C67.6797 26.9336 67.8574 26.8379 68.0215 26.6602L73.3672 19.7422H73.6953H77.168V26.4551C77.168 26.7695 77.3047 26.9336 77.5918 26.9336H78.6582C78.9453 26.9336 79.082 26.7832 79.082 26.4824V8.33984C79.082 8.03906 78.959 7.88867 78.7129 7.88867H73.668ZM74.0918 18.0059C70.8516 18.0059 68.9648 16.5977 68.9648 13.7949C68.9648 12.5234 69.4023 11.5254 70.2637 10.7871C71.125 10.0488 72.3281 9.67969 73.873 9.67969H77.168V18.0059H74.0918Z" fill="white"/>
<path d="M327.598 27.1797C329.525 27.1797 331.084 26.6191 332.301 25.4844C333.504 24.3633 334.105 23.0508 334.105 21.5605C334.105 21.2461 333.969 21.082 333.682 21.082H332.643C332.342 21.082 332.191 21.2461 332.191 21.5605C332.178 22.5859 331.74 23.4883 330.879 24.2812C330.018 25.0879 328.938 25.4844 327.639 25.4844C325.793 25.4844 324.357 24.7051 323.346 23.1465C322.32 21.5879 321.814 19.6875 321.814 17.4453C321.814 15.1895 322.32 13.2754 323.346 11.7031C324.357 10.1309 325.793 9.35156 327.639 9.35156C328.814 9.35156 329.785 9.70703 330.537 10.4043C331.289 11.1152 331.672 11.9629 331.686 12.9609C331.686 13.2754 331.836 13.4395 332.137 13.4395H333.203C333.463 13.4395 333.6 13.2754 333.6 12.9609C333.6 11.4844 333.053 10.2266 331.945 9.1875C330.838 8.16211 329.43 7.64258 327.693 7.64258C325.219 7.64258 323.291 8.55859 321.896 10.4043C320.488 12.25 319.791 14.6016 319.791 17.4727C319.791 19.2227 320.078 20.8223 320.639 22.2578C321.199 23.6934 322.074 24.8828 323.291 25.7988C324.508 26.7148 325.943 27.1797 327.598 27.1797ZM340.066 26.9336C340.23 26.9336 340.354 26.8652 340.422 26.7148L350.115 11.252L350.17 11.2793C350.102 12.168 350.061 12.9336 350.061 13.5488V26.4551C350.061 26.7695 350.197 26.9336 350.484 26.9336H351.551C351.811 26.9336 351.934 26.7832 351.934 26.4824V8.3125C351.947 8.02539 351.824 7.88867 351.578 7.88867H350.402C350.225 7.90234 350.102 7.98438 350.006 8.14844L340.34 23.625L340.285 23.5977C340.34 23.0371 340.367 22.3262 340.367 21.4512V8.3125C340.381 8.02539 340.258 7.88867 340.012 7.88867H338.918C338.631 7.88867 338.494 8.05273 338.494 8.36719V26.4551C338.494 26.7695 338.631 26.9336 338.918 26.9336H340.066ZM359.453 26.9336C359.727 26.9336 359.863 26.7695 359.863 26.4551V12.7148C359.863 12.5371 359.85 12.2227 359.809 11.7715C359.768 11.3203 359.754 11.0605 359.754 11.0059L359.863 10.9785L365.605 19.6602C365.701 19.8242 365.852 19.9062 366.029 19.9062H367.178C367.355 19.9062 367.492 19.8242 367.602 19.6602L373.33 11.0059L373.426 11.0332C373.357 11.2109 373.33 11.7168 373.33 12.5371V26.4824C373.33 26.7832 373.467 26.9336 373.727 26.9336H374.793C375.08 26.9336 375.217 26.7695 375.217 26.4551V8.36719C375.217 8.05273 375.08 7.88867 374.82 7.88867H373.508C373.316 7.88867 373.152 7.99805 373.029 8.23047L366.645 17.9238L360.205 8.20312C360.068 7.99805 359.904 7.88867 359.727 7.88867H358.332C358.1 7.88867 357.99 8.02539 357.99 8.3125V26.4824C357.99 26.7832 358.127 26.9336 358.387 26.9336H359.453ZM387.727 8.20312C387.672 7.99805 387.549 7.88867 387.371 7.88867H385.99C385.785 7.88867 385.662 7.99805 385.607 8.20312L379.305 26.2363C379.236 26.4688 379.195 26.6191 379.195 26.6875C379.182 26.8516 379.291 26.9336 379.496 26.9336H380.727C380.932 26.9336 381.082 26.8105 381.15 26.5645L382.545 22.4492H390.721L392.102 26.5645C392.17 26.8105 392.307 26.9336 392.512 26.9336H393.811C394.029 26.9336 394.139 26.8516 394.139 26.6875C394.139 26.6191 394.098 26.4688 394.029 26.2363L387.727 8.20312ZM386.605 10.4453H386.688L390.133 20.7402H383.105L386.605 10.4453Z" fill="white"/>
<path d="M165.176 7.88867C164.916 7.88867 164.779 8.02539 164.779 8.3125V9.29688C164.779 9.55664 164.93 9.67969 165.23 9.67969H170.809V26.4824C170.795 26.7832 170.932 26.9336 171.191 26.9336H172.285C172.572 26.9336 172.709 26.7695 172.709 26.4551V9.67969H178.342C178.615 9.69336 178.752 9.54297 178.752 9.24219V8.28516C178.766 8.02539 178.643 7.88867 178.396 7.88867H165.176ZM188.145 27.1797C190.496 27.1797 192.383 26.2637 193.791 24.4316C195.199 22.6133 195.896 20.2754 195.896 17.418C195.896 14.5195 195.213 12.168 193.859 10.3496C192.492 8.54492 190.646 7.64258 188.309 7.64258C185.957 7.64258 184.07 8.54492 182.662 10.3633C181.24 12.1816 180.529 14.5332 180.529 17.4043C180.529 20.2891 181.213 22.627 182.594 24.4453C183.961 26.2637 185.807 27.1797 188.145 27.1797ZM188.145 25.4844C186.613 25.4844 185.301 24.7598 184.207 23.3242C183.1 21.8887 182.553 19.9062 182.553 17.377C182.553 14.8613 183.113 12.8926 184.234 11.4707C185.342 10.0625 186.709 9.35156 188.309 9.35156C189.881 9.35156 191.193 10.0625 192.273 11.498C193.354 12.9336 193.887 14.8887 193.887 17.3906C193.887 19.9062 193.326 21.8887 192.205 23.3242C191.084 24.7598 189.73 25.4844 188.145 25.4844ZM202.172 26.9336C202.445 26.9336 202.582 26.7695 202.582 26.4551V12.7148C202.582 12.5371 202.568 12.2227 202.527 11.7715C202.486 11.3203 202.473 11.0605 202.473 11.0059L202.582 10.9785L208.324 19.6602C208.42 19.8242 208.57 19.9062 208.748 19.9062H209.896C210.074 19.9062 210.211 19.8242 210.32 19.6602L216.049 11.0059L216.145 11.0332C216.076 11.2109 216.049 11.7168 216.049 12.5371V26.4824C216.049 26.7832 216.186 26.9336 216.445 26.9336H217.512C217.799 26.9336 217.936 26.7695 217.936 26.4551V8.36719C217.936 8.05273 217.799 7.88867 217.539 7.88867H216.227C216.035 7.88867 215.871 7.99805 215.748 8.23047L209.363 17.9238L202.924 8.20312C202.787 7.99805 202.623 7.88867 202.445 7.88867H201.051C200.818 7.88867 200.709 8.02539 200.709 8.3125V26.4824C200.709 26.7832 200.846 26.9336 201.105 26.9336H202.172ZM230.445 8.20312C230.391 7.99805 230.268 7.88867 230.09 7.88867H228.709C228.504 7.88867 228.381 7.99805 228.326 8.20312L222.023 26.2363C221.955 26.4688 221.914 26.6191 221.914 26.6875C221.9 26.8516 222.01 26.9336 222.215 26.9336H223.445C223.65 26.9336 223.801 26.8105 223.869 26.5645L225.264 22.4492H233.439L234.82 26.5645C234.889 26.8105 235.025 26.9336 235.23 26.9336H236.529C236.748 26.9336 236.857 26.8516 236.857 26.6875C236.857 26.6191 236.816 26.4688 236.748 26.2363L230.445 8.20312ZM229.324 10.4453H229.406L232.852 20.7402H225.824L229.324 10.4453Z" fill="white"/>
<path d="M-1.09474e-05 73.9336L0 198.934L119 198.934L119 74.4826L59.4129 136.342L-1.09474e-05 73.9336Z" fill="white"/>
<path d="M158 73.9336L158 198.934L276 198.934L276 74.4826L216.914 136.342L158 73.9336Z" fill="#FF0000"/>
<path d="M314 73.9336L314 198.934L433 198.934L433 74.4826L373.413 136.342L314 73.9336Z" fill="white"/>
<path d="M433 193.934C423.983 193.934 415.335 190.509 408.958 184.415C402.582 178.32 399 170.053 399 161.434C399 152.814 402.582 144.548 408.958 138.453C415.335 132.358 423.983 128.934 433 128.934L433 161.434L433 193.934Z" fill="#FF0000"/>
<path d="M387.882 121.473C390.784 124.258 392.764 127.869 393.565 131.838C394.366 135.808 393.952 139.954 392.376 143.742C390.8 147.53 388.135 150.786 384.725 153.089C381.315 155.393 377.315 156.638 373.244 156.665C369.172 156.691 365.214 155.497 361.881 153.238C358.549 150.978 355.994 147.756 354.547 143.988C353.1 140.219 352.827 136.078 353.763 132.097C354.7 128.116 356.803 124.479 359.8 121.655L373.59 136.31L387.882 121.473Z" fill="#8A8A8A"/>
<path d="M314.5 181.934C317.849 181.934 321.165 181.3 324.258 180.069C327.352 178.837 330.163 177.033 332.531 174.758C334.899 172.483 336.777 169.782 338.059 166.809C339.34 163.837 340 160.651 340 157.434C340 154.216 339.34 151.03 338.059 148.058C336.777 145.085 334.899 142.385 332.531 140.109C330.163 137.834 327.352 136.03 324.258 134.799C321.165 133.567 317.849 132.934 314.5 132.934L314.5 157.434V181.934Z" fill="#D6D6D6"/>
</svg>
