<svg width="519" height="298" viewBox="0 0 519 298" fill="none" xmlns="http://www.w3.org/2000/svg">
<path d="M88.6389 259.177C82.067 252.981 75.98 246.324 70.4171 239.217C71.504 240.622 72.5965 242.026 73.6835 243.431C64.7426 231.888 57.2844 219.302 51.5431 205.888C52.2454 207.548 52.9478 209.203 53.6501 210.863C48.2042 197.949 44.4082 184.424 42.5186 170.544C42.7694 172.387 43.0147 174.236 43.2655 176.079C41.6379 163.665 41.5543 151.118 43.1986 138.703C42.9478 140.546 42.7025 142.395 42.4517 144.239C44.0013 133.04 46.95 122.114 51.3591 111.693C50.6568 113.353 49.9545 115.007 49.2521 116.667C53.5219 106.757 59.0514 97.4683 65.6568 88.9238C64.5698 90.3284 63.4773 91.7331 62.3903 93.1378C69.5531 83.9769 77.8641 75.8043 87.0502 68.6644C85.64 69.7471 84.2297 70.8353 82.8195 71.9179C93.4661 63.7287 105.149 57.0218 117.535 51.814C115.868 52.5136 114.207 53.2132 112.541 53.9127C125.852 48.3884 139.815 44.6519 154.101 42.7198C152.251 42.9697 150.395 43.214 148.544 43.4638C163.432 41.515 178.488 41.5539 193.371 43.536C191.52 43.2861 189.664 43.0418 187.814 42.792C202.975 44.8851 217.758 48.9825 231.866 54.8954C230.199 54.1959 228.538 53.4963 226.872 52.7967C228.226 53.3742 229.569 53.9627 230.913 54.5623C236.191 56.9275 241.219 58.2544 247.022 56.661C251.871 55.3285 257.122 51.5975 259.514 47.0948C262.078 42.2646 263.36 36.4072 261.621 31.0495C260.049 26.2081 256.877 20.7893 252.016 18.6074C221.71 5.00491 188.51 -2.0184 155.205 1.06298C124.581 3.89451 94.3914 13.3663 68.873 30.7663C56.7828 39.0111 45.4338 48.555 36.008 59.7701C30.7906 65.9717 25.8352 72.4953 21.5877 79.402C17.3458 86.2866 14.0292 93.532 10.9077 100.972C-1.27173 129.981 -2.30294 162.877 4.26337 193.363C11.2477 225.787 28.1485 255.968 50.6958 280.202C53.3937 283.1 56.1975 285.904 59.0793 288.619C67.0224 296.109 80.863 297.058 88.6389 288.619C96.1249 280.496 97.1227 267.177 88.6389 259.177Z" fill="#7C7C7C"/>
<path d="M57.8517 297.565C51.7703 282.757 48.4314 266.656 48.4314 249.823C48.4314 176.93 110.928 117.834 188.024 117.834C265.12 117.834 327.617 176.925 327.617 249.823C327.617 266.662 324.278 282.757 318.197 297.565H57.8517Z" fill="#000606"/>
<mask id="mask0_195_156" style="mask-type:alpha" maskUnits="userSpaceOnUse" x="48" y="117" width="280" height="181">
<path d="M57.8517 297.565C51.7703 282.757 48.4314 266.656 48.4314 249.823C48.4314 176.93 110.928 117.834 188.024 117.834C265.12 117.834 327.617 176.925 327.617 249.823C327.617 266.662 324.278 282.757 318.197 297.565H57.8517Z" fill="#000606"/>
</mask>
<g mask="url(#mask0_195_156)">
<rect x="92.8137" y="86.9741" width="28.2396" height="264.358" fill="white"/>
<rect x="151.749" y="86.9741" width="28.2396" height="264.358" fill="white"/>
<rect x="210.683" y="86.9741" width="28.2396" height="264.358" fill="white"/>
<rect x="269.618" y="86.9741" width="28.2396" height="264.358" fill="white"/>
<rect x="33.8789" y="86.9741" width="28.2396" height="264.358" fill="white"/>
</g>
<path d="M456.117 198.339H368.252L456.117 96.7368V198.339Z" fill="black"/>
<path d="M368.252 198.339H280.387V96.7368L368.252 198.339Z" fill="black"/>
<path d="M454.612 219.409C490.169 219.409 518.993 254.403 518.993 297.565H454.612V219.409Z" fill="#FF0000"/>
<path d="M280.385 297.526L456.115 297.526L456.115 197.684L280.385 197.684L280.385 297.526Z" fill="black"/>
<path d="M280.387 219.409C315.945 219.409 344.768 254.403 344.768 297.565H280.387V219.409Z" fill="#FF0000"/>
</svg>
