<svg width="2574" height="134" viewBox="0 0 2574 134" fill="none" xmlns="http://www.w3.org/2000/svg">
<g clip-path="url(#clip0_221_713)">
<ellipse cx="358.396" cy="67.2097" rx="66.396" ry="67.2098" transform="rotate(-180 358.396 67.2097)" fill="#424242"/>
</g>
<g clip-path="url(#clip1_221_713)">
<ellipse cx="215.396" cy="67.2097" rx="66.396" ry="67.2098" transform="rotate(-180 215.396 67.2097)" fill="black"/>
</g>
<g clip-path="url(#clip2_221_713)">
<ellipse cx="72.3959" cy="67.2097" rx="66.396" ry="67.2098" transform="rotate(-180 72.3959 67.2097)" fill="#FF0000"/>
</g>
<g clip-path="url(#clip3_221_713)">
<ellipse cx="787.396" cy="67.2097" rx="66.396" ry="67.2098" transform="rotate(-180 787.396 67.2097)" fill="#424242"/>
</g>
<g clip-path="url(#clip4_221_713)">
<ellipse cx="644.396" cy="67.2097" rx="66.396" ry="67.2098" transform="rotate(-180 644.396 67.2097)" fill="black"/>
</g>
<g clip-path="url(#clip5_221_713)">
<ellipse cx="501.396" cy="67.2097" rx="66.396" ry="67.2098" transform="rotate(-180 501.396 67.2097)" fill="#FF0000"/>
</g>
<g clip-path="url(#clip6_221_713)">
<ellipse cx="1216.4" cy="67.2097" rx="66.396" ry="67.2098" transform="rotate(-180 1216.4 67.2097)" fill="#424242"/>
</g>
<g clip-path="url(#clip7_221_713)">
<ellipse cx="1073.4" cy="67.2097" rx="66.396" ry="67.2098" transform="rotate(-180 1073.4 67.2097)" fill="black"/>
</g>
<g clip-path="url(#clip8_221_713)">
<ellipse cx="930.396" cy="67.2097" rx="66.396" ry="67.2098" transform="rotate(-180 930.396 67.2097)" fill="#FF0000"/>
</g>
<g clip-path="url(#clip9_221_713)">
<ellipse cx="1645.4" cy="67.2097" rx="66.396" ry="67.2098" transform="rotate(-180 1645.4 67.2097)" fill="#424242"/>
</g>
<g clip-path="url(#clip10_221_713)">
<ellipse cx="1502.4" cy="67.2097" rx="66.396" ry="67.2098" transform="rotate(-180 1502.4 67.2097)" fill="black"/>
</g>
<g clip-path="url(#clip11_221_713)">
<ellipse cx="1359.4" cy="67.2097" rx="66.396" ry="67.2098" transform="rotate(-180 1359.4 67.2097)" fill="#FF0000"/>
</g>
<g clip-path="url(#clip12_221_713)">
<ellipse cx="2074.4" cy="67.2097" rx="66.396" ry="67.2098" transform="rotate(-180 2074.4 67.2097)" fill="#424242"/>
</g>
<g clip-path="url(#clip13_221_713)">
<ellipse cx="1931.4" cy="67.2097" rx="66.396" ry="67.2098" transform="rotate(-180 1931.4 67.2097)" fill="black"/>
</g>
<g clip-path="url(#clip14_221_713)">
<ellipse cx="1788.4" cy="67.2097" rx="66.396" ry="67.2098" transform="rotate(-180 1788.4 67.2097)" fill="#FF0000"/>
</g>
<g clip-path="url(#clip15_221_713)">
<ellipse cx="2503.4" cy="67.2097" rx="66.396" ry="67.2098" transform="rotate(-180 2503.4 67.2097)" fill="#424242"/>
</g>
<g clip-path="url(#clip16_221_713)">
<ellipse cx="2360.4" cy="67.2097" rx="66.396" ry="67.2098" transform="rotate(-180 2360.4 67.2097)" fill="black"/>
</g>
<g clip-path="url(#clip17_221_713)">
<ellipse cx="2217.4" cy="67.2097" rx="66.396" ry="67.2098" transform="rotate(-180 2217.4 67.2097)" fill="#FF0000"/>
</g>
<defs>
<clipPath id="clip0_221_713">
<rect width="143" height="134" fill="white" transform="translate(286)"/>
</clipPath>
<clipPath id="clip1_221_713">
<rect width="143" height="134" fill="white" transform="translate(143)"/>
</clipPath>
<clipPath id="clip2_221_713">
<rect width="143" height="134" fill="white"/>
</clipPath>
<clipPath id="clip3_221_713">
<rect width="143" height="134" fill="white" transform="translate(715)"/>
</clipPath>
<clipPath id="clip4_221_713">
<rect width="143" height="134" fill="white" transform="translate(572)"/>
</clipPath>
<clipPath id="clip5_221_713">
<rect width="143" height="134" fill="white" transform="translate(429)"/>
</clipPath>
<clipPath id="clip6_221_713">
<rect width="143" height="134" fill="white" transform="translate(1144)"/>
</clipPath>
<clipPath id="clip7_221_713">
<rect width="143" height="134" fill="white" transform="translate(1001)"/>
</clipPath>
<clipPath id="clip8_221_713">
<rect width="143" height="134" fill="white" transform="translate(858)"/>
</clipPath>
<clipPath id="clip9_221_713">
<rect width="143" height="134" fill="white" transform="translate(1573)"/>
</clipPath>
<clipPath id="clip10_221_713">
<rect width="143" height="134" fill="white" transform="translate(1430)"/>
</clipPath>
<clipPath id="clip11_221_713">
<rect width="143" height="134" fill="white" transform="translate(1287)"/>
</clipPath>
<clipPath id="clip12_221_713">
<rect width="143" height="134" fill="white" transform="translate(2002)"/>
</clipPath>
<clipPath id="clip13_221_713">
<rect width="143" height="134" fill="white" transform="translate(1859)"/>
</clipPath>
<clipPath id="clip14_221_713">
<rect width="143" height="134" fill="white" transform="translate(1716)"/>
</clipPath>
<clipPath id="clip15_221_713">
<rect width="143" height="134" fill="white" transform="translate(2431)"/>
</clipPath>
<clipPath id="clip16_221_713">
<rect width="143" height="134" fill="white" transform="translate(2288)"/>
</clipPath>
<clipPath id="clip17_221_713">
<rect width="143" height="134" fill="white" transform="translate(2145)"/>
</clipPath>
</defs>
</svg>
