<svg width="519" height="298" viewBox="0 0 519 298" fill="none" xmlns="http://www.w3.org/2000/svg">
<g clip-path="url(#clip0_172_108)">
<path d="M57.8517 297.565C51.7703 282.757 48.4314 266.656 48.4314 249.823C48.4314 176.93 110.928 117.834 188.024 117.834C265.12 117.834 327.617 176.925 327.617 249.823C327.617 266.662 324.278 282.757 318.197 297.565H57.8517Z" fill="#000606"/>
<mask id="mask0_172_108" style="mask-type:alpha" maskUnits="userSpaceOnUse" x="48" y="117" width="280" height="181">
<path d="M57.8517 297.565C51.7703 282.757 48.4314 266.656 48.4314 249.823C48.4314 176.93 110.928 117.834 188.024 117.834C265.12 117.834 327.617 176.925 327.617 249.823C327.617 266.662 324.278 282.757 318.197 297.565H57.8517Z" fill="#000606"/>
</mask>
<g mask="url(#mask0_172_108)">
<rect x="92.8137" y="86.9741" width="28.2396" height="264.358" fill="white"/>
<rect x="151.749" y="86.9741" width="28.2396" height="264.358" fill="white"/>
<rect x="210.683" y="86.9741" width="28.2396" height="264.358" fill="white"/>
<rect x="269.618" y="86.9741" width="28.2396" height="264.358" fill="white"/>
<rect x="33.8789" y="86.9741" width="28.2396" height="264.358" fill="white"/>
</g>
<path d="M456.117 198.339H368.252L456.117 96.7368V198.339Z" fill="black"/>
<path d="M368.252 198.339H280.387V96.7368L368.252 198.339Z" fill="black"/>
<path d="M454.612 219.409C490.169 219.409 518.993 254.403 518.993 297.565H454.612V219.409Z" fill="#FF0000"/>
<path d="M280.385 297.526L456.115 297.526L456.115 197.684L280.385 197.684L280.385 297.526Z" fill="black"/>
<path d="M280.387 219.409C315.945 219.409 344.768 254.403 344.768 297.565H280.387V219.409V219.409Z" fill="#FF0000"/>
</g>
<defs>
<clipPath id="clip0_172_108">
<rect width="518.745" height="297.217" fill="white" transform="translate(0.25415 0.348145)"/>
</clipPath>
</defs>
</svg>
