<svg width="523" height="428" viewBox="0 0 523 428" fill="none" xmlns="http://www.w3.org/2000/svg">
<path d="M522.197 117.984C521.921 115.8 521.641 113.616 521.365 111.437C520.239 107.264 518.191 103.634 515.225 100.547C510.354 94.2909 504.87 88.5354 499.018 83.2434C486.978 72.3628 473.657 62.7298 458.912 56.1002C449.374 51.8111 439.777 48.036 429.538 45.927C418.756 43.7064 407.656 42.4365 396.646 42.8301C375.3 43.5982 355.099 48.9281 335.644 57.7132C327.859 61.2272 320.396 65.5358 313.52 70.6729C305.414 76.7351 297.628 83.187 291.267 91.1875C287.609 95.7848 283.986 100.492 281.019 105.601C278.098 110.628 275.858 116.041 273.743 121.459C270.697 129.271 269.444 137.428 268.496 145.751C266.845 160.292 269.173 175.582 273.036 189.586C277.24 204.812 283.619 219.489 290.511 233.621C303.25 259.746 318.895 284.313 331.002 310.77C331.986 312.919 332.928 315.089 333.85 317.265C336.921 325.199 339.473 333.366 340.892 341.781C341.199 345.404 341.241 349.042 340.968 352.663C340.498 355.014 339.874 357.331 339.099 359.598C338.036 361.738 336.839 363.802 335.517 365.782C333.554 368.067 331.426 370.192 329.163 372.169C325.15 375.009 320.885 377.437 316.451 379.515C316.068 379.666 315.69 379.818 315.307 379.964C309.295 382.249 304.251 385.391 300.888 391.22C297.853 396.488 296.539 404.257 298.387 410.184C300.245 416.149 303.831 421.908 309.382 424.939C310.677 425.645 312.071 426.285 313.521 426.827L329.472 426.891C338.783 423.273 347.842 419.048 355.834 412.897C366.16 404.951 375.598 395.513 381.163 383.346C383.25 378.786 385.29 374.062 386.582 369.171C387.863 364.318 388.467 359.232 388.978 354.256C389.834 345.894 388.756 337.41 387.404 329.17C384.779 313.196 378.202 297.862 371.388 283.364C364.488 268.679 356.52 254.549 348.718 240.359C340.377 225.187 332.082 209.923 325.306 193.937C321.427 184.003 318.236 173.759 316.536 163.199C316.065 158.049 315.998 152.873 316.448 147.721C317.172 143.785 318.217 139.927 319.571 136.168C321.432 132.253 323.629 128.525 326.109 124.984C329.757 120.589 333.811 116.584 338.163 112.925C344.816 108.033 351.963 103.915 359.442 100.493C368.572 96.8748 378.044 94.2702 387.719 92.7114C396.125 91.8259 404.568 91.7777 412.971 92.6866C420.985 94.0865 428.814 96.3499 436.376 99.4002C444.845 103.39 452.85 108.313 460.339 114C467.935 120.322 474.99 127.391 481.091 135.228C484.687 139.849 492.566 142.485 498.067 142.507C503.966 142.53 511.024 139.878 515.101 135.364C519.308 130.687 522.455 124.539 522.197 117.984Z" fill="black"/>
<path d="M106.847 211.646C230.836 211.646 331.352 308.131 331.352 427.156H106.847V211.646Z" fill="#F40303"/>
<path d="M0 98.5869H91.9798L0 0.0010376V98.5869Z" fill="black"/>
<path d="M91.9795 98.5859H183.964V0L91.9795 98.5859Z" fill="black"/>
<path d="M183.504 120.125C186.746 141.839 172.553 166.6 149.814 177.378C125.276 189.009 100.081 179.955 93.5458 157.152C90.1127 145.187 92.5066 131.816 99.0987 120.125H183.504Z" fill="black"/>
<path d="M0.459744 120.125C-2.78204 141.839 11.4105 166.601 34.1495 177.378C58.6878 189.009 83.8827 179.955 90.418 157.152C93.8511 145.187 91.4572 131.817 84.8651 120.125H0.459744Z" fill="black"/>
<path d="M129.335 120.125H60.1978V141.029H129.335V120.125Z" fill="black"/>
<path d="M106.846 352.904C66.3008 352.904 33.4331 386.145 33.4331 427.155H106.846V352.904Z" fill="black"/>
</svg>
