<svg width="1690" height="123" viewBox="0 0 1690 123" fill="none" xmlns="http://www.w3.org/2000/svg">
<circle cx="1058.93" cy="61.2241" r="60.5" transform="rotate(-90 1058.93 61.2241)" fill="#F40303"/>
<circle cx="1486.93" cy="61.5" r="60.5" transform="rotate(-90 1486.93 61.5)" fill="#F40303"/>
<circle cx="630.931" cy="60.5" r="60.5" transform="rotate(-90 630.931 60.5)" fill="#F40303"/>
<circle cx="202.931" cy="60.5" r="60.5" transform="rotate(-90 202.931 60.5)" fill="#F40303"/>
<circle cx="1201.5" cy="61.5" r="60.5" transform="rotate(-90 1201.5 61.5)" fill="black"/>
<circle cx="1629.5" cy="61.7759" r="60.5" transform="rotate(-90 1629.5 61.7759)" fill="black"/>
<circle cx="773.5" cy="60.7759" r="60.5" transform="rotate(-90 773.5 60.7759)" fill="black"/>
<circle cx="345.5" cy="60.7759" r="60.5" transform="rotate(-90 345.5 60.7759)" fill="black"/>
<circle cx="916.5" cy="61.5" r="60.5" transform="rotate(-90 916.5 61.5)" fill="#D8D8D8"/>
<circle cx="1344.5" cy="61.7759" r="60.5" transform="rotate(-90 1344.5 61.7759)" fill="#D8D8D8"/>
<circle cx="488.5" cy="60.7759" r="60.5" transform="rotate(-90 488.5 60.7759)" fill="#D8D8D8"/>
<circle cx="60.5" cy="60.7759" r="60.5" transform="rotate(-90 60.5 60.7759)" fill="#D8D8D8"/>
</svg>
