<svg width="481" height="59" viewBox="0 0 481 59" fill="none" xmlns="http://www.w3.org/2000/svg">
<rect x="109.355" width="58.978" height="45.9886" fill="#FF0000"/>
<rect x="365.5" width="58.978" height="45.9886" fill="#FF0000"/>
<rect x="88.4666" y="7.0752" width="65.1215" height="45.9886" fill="#FF0000"/>
<rect x="344.613" y="7.0752" width="65.1215" height="45.9886" fill="#FF0000"/>
<path d="M167.097 0C166.079 22.7284 157.337 42.3592 144.68 53.2814C132.027 42.3592 123.281 22.7284 122.263 0H0C24.1728 35.4672 66.3166 58.9597 114.27 58.9597C162.223 58.9597 204.371 35.4672 228.54 0H167.097Z" fill="white"/>
<path d="M419.558 0C418.539 22.7284 409.797 42.3592 397.14 53.2814C384.487 42.3592 375.742 22.7284 374.723 0H252.46C276.633 35.4672 318.777 58.9597 366.73 58.9597C414.684 58.9597 456.831 35.4672 481 0H419.558Z" fill="white"/>
</svg>
