<svg width="295" height="292" viewBox="0 0 295 292" fill="none" xmlns="http://www.w3.org/2000/svg">
<rect width="288.917" height="79.6255" transform="matrix(-1 -2.61602e-07 -2.62937e-07 1 294.829 18.2748)" fill="white"/>
<rect width="249.319" height="84.9062" transform="matrix(-2.23448e-07 1 1 2.13217e-07 18.8833 42.4235)" fill="white"/>
<path d="M148.454 38.4431C161.714 48.6389 171.187 63.5862 174.789 79.9968C178.392 96.4074 175.828 112.937 167.662 125.949C159.496 138.962 146.397 147.391 131.247 149.383C116.097 151.374 100.136 146.765 86.8755 136.57L117.665 87.5064L148.454 38.4431Z" fill="white"/>
<path d="M111.576 38.443C124.836 48.6388 134.309 63.586 137.911 79.9967C141.514 96.4073 138.95 112.937 130.784 125.949C122.618 138.962 109.519 147.391 94.3691 149.383C79.2187 151.374 63.2578 146.765 49.9976 136.57L80.7866 87.5063L111.576 38.443Z" fill="white"/>
</svg>
