<svg width="296" height="293" viewBox="0 0 296 293" fill="none" xmlns="http://www.w3.org/2000/svg">
<rect width="288.917" height="79.6255" transform="matrix(1 8.74228e-08 8.74228e-08 -1 0.697754 273.9)" fill="black"/>
<rect width="249.319" height="84.9062" transform="matrix(4.79335e-08 -1 -1 -3.90379e-08 276.643 249.75)" fill="black"/>
<path d="M147.073 253.731C133.813 243.536 124.339 228.588 120.737 212.178C117.135 195.767 119.699 179.238 127.864 166.225C136.03 153.213 149.129 144.784 164.279 142.792C179.43 140.8 195.391 145.409 208.651 155.605L177.862 204.668L147.073 253.731Z" fill="black"/>
<path d="M183.951 253.731C170.691 243.536 161.217 228.588 157.615 212.178C154.013 195.767 156.577 179.238 164.742 166.225C172.908 153.213 186.007 144.784 201.157 142.792C216.308 140.8 232.269 145.409 245.529 155.605L214.74 204.668L183.951 253.731Z" fill="black"/>
</svg>
