<svg width="130" height="130" viewBox="0 0 130 130" fill="none" xmlns="http://www.w3.org/2000/svg">
<path d="M0.254139 0.34816L0.25415 129.348L129.254 129.348L129.254 0.914769L64.6597 64.7537L0.254139 0.34816Z" fill="black"/>
<rect width="11.2445" height="9.70808" transform="matrix(-1 0 0 1 94.1873 93.0249)" fill="#A8A8A8"/>
<path d="M98 95H86V104L90 105.5L98 104V95Z" fill="#A8A8A8"/>
<path d="M83.242 93.0249C83.4458 97.9188 85.1949 102.146 87.7274 104.497C90.2591 102.146 92.009 97.9188 92.2128 93.0249H116.676C111.839 100.662 103.407 105.72 93.812 105.72C84.2173 105.72 75.7841 100.662 70.9483 93.0249H83.242Z" fill="white"/>
<rect width="11.9941" height="9.70808" transform="matrix(-1 0 0 1 37.9648 93.0249)" fill="#A8A8A8"/>
<path d="M41.7129 94.5186H28.9692V103.48L32 105L41.7129 103.48V94.5186Z" fill="#A8A8A8"/>
<path d="M26.472 93.0249C26.6791 97.9188 28.4569 102.146 31.0309 104.497C33.6041 102.146 35.3827 97.9188 35.5898 93.0249H60.4539C55.5379 100.662 46.9673 105.72 37.2153 105.72C27.4633 105.72 18.8918 100.662 13.9767 93.0249H26.472Z" fill="white"/>
</svg>
