<svg width="129" height="129" viewBox="0 0 129 129" fill="none" xmlns="http://www.w3.org/2000/svg">
<path d="M-1.14448e-05 1.66029e-05L0 129L129 129L129 0.566623L64.4056 64.4056L-1.14448e-05 1.66029e-05Z" fill="black"/>
<rect width="11.2445" height="9.70808" transform="matrix(-1 0 0 1 93.9331 92.6768)" fill="#A8A8A8"/>
<path d="M97.7458 94.6519H85.7458V103.652L89.7458 105.152L97.7458 103.652V94.6519Z" fill="#A8A8A8"/>
<path d="M82.9879 92.6768C83.1917 97.5706 84.9408 101.798 87.4733 104.149C90.005 101.798 91.7549 97.5706 91.9586 92.6768H116.422C111.585 100.314 103.153 105.372 93.5579 105.372C83.9631 105.372 75.53 100.314 70.6941 92.6768H82.9879Z" fill="white"/>
<rect width="11.9941" height="9.70808" transform="matrix(-1 0 0 1 37.7107 92.6768)" fill="#A8A8A8"/>
<path d="M41.4587 94.1704H28.715V103.132L31.7458 104.652L41.4587 103.132V94.1704Z" fill="#A8A8A8"/>
<path d="M26.2179 92.6768C26.425 97.5706 28.2028 101.798 30.7768 104.149C33.35 101.798 35.1286 97.5706 35.3357 92.6768H60.1997C55.2838 100.314 46.7132 105.372 36.9612 105.372C27.2091 105.372 18.6377 100.314 13.7226 92.6768H26.2179Z" fill="white"/>
</svg>
