<svg width="481" height="384" viewBox="0 0 481 384" fill="none" xmlns="http://www.w3.org/2000/svg">
<path d="M0.956543 174.849V5.0415H113.289V66.416H58.1548V73.1653H82.3156C96.4924 73.1653 108.645 78.1473 118.76 88.1017C128.879 98.0609 133.938 109.926 133.938 123.702C133.938 137.888 128.879 149.959 118.76 159.913C108.64 169.872 96.4924 174.849 82.3156 174.849H64.9677V126.974H58.1548V174.845H0.956543V174.849Z" fill="#979797"/>
<path d="M478.992 3.19775V174.845H430.67V126.974H423.857V174.845H333.411V5.04152H388.545V59.6667L478.992 3.19775ZM395.358 5.04152H456.068L395.358 42.2751V5.04152Z" fill="#979797"/>
<path d="M137.655 379.985H56.0909V332.114H49.278V379.985H0.956543V210.177H49.278V251.299H56.0909V210.177H131.253L91.6081 295.081L137.655 379.985Z" fill="white"/>
<path d="M376.051 379.985V264.803H337.849V210.177H474.553V264.803H436.351V379.985H376.051Z" fill="white"/>
<path d="M480.57 209.609H333.411V265.089H480.57V209.609Z" fill="white"/>
<path d="M231.608 383.973C281.698 383.973 322.305 344.175 322.305 295.081C322.305 245.987 281.698 206.188 231.608 206.188C181.517 206.188 140.911 245.987 140.911 295.081C140.911 344.175 181.517 383.973 231.608 383.973Z" fill="white"/>
<path d="M231.608 177.916C281.698 177.916 322.305 138.118 322.305 89.0238C322.305 39.9298 281.698 0.131348 231.608 0.131348C181.517 0.131348 140.911 39.9298 140.911 89.0238C140.911 138.118 181.517 177.916 231.608 177.916Z" fill="#979797"/>
<path d="M75.5981 323.11H32.9624V379.985H75.5981V323.11Z" fill="white"/>
<path d="M75.5982 210.177H43.5225V259.539H75.5982V210.177Z" fill="white"/>
<path d="M467.549 111.345H385.629V174.849H467.549V111.345Z" fill="#979797"/>
<path d="M82.3154 120.301H37.2651V174.849H82.3154V120.301Z" fill="#979797"/>
</svg>
