<svg width="255" height="180" viewBox="0 0 255 180" fill="none" xmlns="http://www.w3.org/2000/svg">
<path d="M35.9043 0.274933L35.9043 179.501L206.82 179.501L206.82 1.06215L121.237 89.7567L35.9043 0.274933Z" fill="#6B6B6B"/>
<path d="M206.445 173.527C193.622 173.527 181.323 168.571 172.256 159.748C163.188 150.925 158.094 138.958 158.094 126.48C158.094 114.003 163.188 102.036 172.256 93.2133C181.323 84.3903 193.622 79.4336 206.445 79.4336L206.445 126.48L206.445 173.527Z" fill="#FF0B0B"/>
<path d="M142.184 68.0885C146.362 72.0905 149.211 77.2778 150.364 82.9809C151.518 88.684 150.922 94.6411 148.653 100.083C146.385 105.526 142.548 110.203 137.639 113.513C132.729 116.822 126.972 118.611 121.11 118.649C115.248 118.687 109.55 116.972 104.752 113.726C99.9544 110.479 96.2765 105.85 94.1933 100.436C92.1102 95.0223 91.7173 89.0716 93.0653 83.3523C94.4134 77.633 97.4406 72.4076 101.756 68.3505L121.608 89.4056L142.184 68.0885Z" fill="#8A8A8A"/>
<path d="M36.2792 154.857C40.9552 154.857 45.5855 153.93 49.9056 152.129C54.2257 150.327 58.151 147.687 61.4575 144.359C64.7639 141.03 67.3868 137.079 69.1762 132.73C70.9656 128.381 71.8867 123.719 71.8867 119.012C71.8867 114.305 70.9656 109.644 69.1762 105.295C67.3868 100.946 64.7639 96.9943 61.4575 93.6658C58.151 90.3373 54.2257 87.6969 49.9056 85.8955C45.5855 84.0942 40.9552 83.167 36.2792 83.167L36.2792 119.012V154.857Z" fill="#D6D6D6"/>
</svg>
