<svg width="284" height="356" viewBox="0 0 284 356" fill="none" xmlns="http://www.w3.org/2000/svg">
<rect width="192.159" height="113.872" transform="matrix(-0.708455 0.705756 -0.708455 -0.705756 217.228 219.7)" fill="#5A5A5A"/>
<rect width="91.0975" height="32.7382" transform="matrix(-0.708455 0.705756 -0.708455 -0.705756 268.657 168.467)" fill="#5A5A5A"/>
<rect width="91.0975" height="81.8454" transform="matrix(-0.708455 0.705756 -0.708455 -0.705756 143.11 270.431)" fill="#363636"/>
<rect width="51.9541" height="81.8454" transform="matrix(-0.708455 0.705756 -0.708455 -0.705756 192.522 221.207)" fill="#363636"/>
<path d="M198.098 153.668L189.003 144.368C187.397 142.726 187.451 141.073 189.167 139.408L232.055 97.7835C233.972 95.9226 235.799 95.8803 237.536 97.6565L246.238 106.554C248.106 108.464 248.048 110.382 246.063 112.309L203.478 153.639C201.628 155.434 199.835 155.444 198.098 153.668ZM169.211 172.199C167.048 169.988 166.001 167.476 166.071 164.665C166.174 161.887 167.402 159.355 169.757 157.07C171.876 155.013 174.346 154.053 177.167 154.189C180.021 154.359 182.579 155.6 184.841 157.912C187.069 160.191 188.216 162.638 188.282 165.252C188.414 167.868 187.336 170.285 185.049 172.505C182.66 174.823 180.005 175.963 177.083 175.925C174.227 175.888 171.603 174.646 169.211 172.199Z" fill="#FF0000"/>
<path d="M186.144 107.252L174.503 101.448C172.447 100.424 171.956 98.8432 173.029 96.7069L199.855 43.3004C201.055 40.9128 202.766 40.2732 204.99 41.3816L216.128 46.9338C218.519 48.1259 219.094 49.9575 217.852 52.4289L191.215 105.458C190.058 107.762 188.367 108.36 186.144 107.252ZM164.954 134.242C162.185 132.862 160.372 130.832 159.515 128.153C158.7 125.494 159.028 122.699 160.501 119.767C161.827 117.128 163.844 115.41 166.552 114.612C169.303 113.836 172.126 114.169 175.02 115.612C177.873 117.034 179.759 118.97 180.68 121.419C181.663 123.847 181.44 126.485 180.009 129.334C178.515 132.308 176.382 134.256 173.611 135.179C170.902 136.081 168.016 135.769 164.954 134.242Z" fill="#FF0000"/>
</svg>
