<svg width="177" height="170" viewBox="0 0 177 170" fill="none" xmlns="http://www.w3.org/2000/svg">
<g clip-path="url(#clip0_75_1770)">
<path d="M0.245605 26.7873C0.245605 25.5455 0.258264 24.3075 0.282315 23.0732C0.258264 24.3075 0.245605 25.5455 0.245605 26.7873Z" fill="white"/>
<path d="M174.595 0.903809L88.3271 0.903809V169.675C139.039 152.888 176.409 95.2788 176.409 26.7873C176.409 17.9569 175.786 9.30845 174.595 0.903809Z" fill="white"/>
<path d="M176.409 26.7873C176.409 25.5455 176.396 24.3075 176.372 23.0732C176.396 24.3075 176.409 25.5455 176.409 26.7873Z" fill="white"/>
<path d="M2.05954 0.903809L88.3272 0.903809V169.675C37.6155 152.888 0.245605 95.2788 0.245605 26.7873C0.245605 17.9569 0.868395 9.30845 2.05954 0.903809Z" fill="white"/>
</g>
<defs>
<clipPath id="clip0_75_1770">
<rect width="176.163" height="168.771" fill="white" transform="translate(0.245605 0.903809)"/>
</clipPath>
</defs>
</svg>
