<svg width="177" height="169" viewBox="0 0 177 169" fill="none" xmlns="http://www.w3.org/2000/svg">
<g clip-path="url(#clip0_3_1447)">
<path d="M0 25.8835C0 24.6417 0.0126583 23.4037 0.0367091 22.1694C0.0126583 23.4037 0 24.6417 0 25.8835Z" fill="white"/>
<path d="M174.349 0L88.0817 0V168.771C138.793 151.985 176.163 94.375 176.163 25.8835C176.163 17.0531 175.54 8.40464 174.349 0Z" fill="white"/>
<path d="M176.163 25.8835C176.163 24.6417 176.151 23.4037 176.126 22.1694C176.151 23.4037 176.163 24.6417 176.163 25.8835Z" fill="white"/>
<path d="M1.81394 0L88.0816 0V168.771C37.3699 151.985 0 94.375 0 25.8835C0 17.0531 0.622789 8.40464 1.81394 0Z" fill="white"/>
</g>
<rect x="79.5005" y="2.74805" width="20" height="157" fill="white"/>
<defs>
<clipPath id="clip0_3_1447">
<rect width="176.163" height="168.771" fill="white"/>
</clipPath>
</defs>
</svg>
