<svg width="177" height="170" viewBox="0 0 177 170" fill="none" xmlns="http://www.w3.org/2000/svg">
<g clip-path="url(#clip0_244_60)">
<path d="M0.499512 26.1354C0.499512 24.8936 0.51217 23.6556 0.536221 22.4214C0.51217 23.6556 0.499512 24.8936 0.499512 26.1354Z" fill="white"/>
<path d="M174.849 0.251953L88.5811 0.251953V169.023C139.293 152.237 176.663 94.627 176.663 26.1354C176.663 17.305 176.04 8.65659 174.849 0.251953Z" fill="white"/>
<path d="M176.663 26.1354C176.663 24.8936 176.65 23.6556 176.626 22.4214C176.65 23.6556 176.663 24.8936 176.663 26.1354Z" fill="white"/>
<path d="M2.31345 0.251953L88.5811 0.251953V169.023C37.8694 152.237 0.499512 94.627 0.499512 26.1354C0.499512 17.305 1.1223 8.65659 2.31345 0.251953Z" fill="white"/>
</g>
<rect x="80" y="3" width="20" height="157" fill="white"/>
<defs>
<clipPath id="clip0_244_60">
<rect width="176.163" height="168.771" fill="white" transform="translate(0.499512 0.251953)"/>
</clipPath>
</defs>
</svg>
