<svg width="1841" height="295" viewBox="0 0 1841 295" fill="none" xmlns="http://www.w3.org/2000/svg">
<path d="M601.1 272C546.7 228.5 639.8 178.5 604.3 131.8C543 51.4001 693.9 7.70008 721.5 101.2" stroke="#7C7C7C" stroke-width="38" stroke-miterlimit="10" stroke-linecap="round"/>
<path d="M864.1 272C809.7 228.5 835.5 186.7 874.2 142.6C919.8 90.5005 939.2 -2.89954 846.4 34.6005" stroke="#7C7C7C" stroke-width="38" stroke-miterlimit="10" stroke-linecap="round"/>
<path d="M1127.1 272C1072.7 228.5 1165.1 203.1 1198.4 154.8C1275.1 43.7005 1131.3 -22.0995 1083.6 54.5005" stroke="#7C7C7C" stroke-width="38" stroke-miterlimit="10" stroke-linecap="round"/>
<path d="M75.1 272C20.7 228.5 12.8 165 29.9 108.9C50.8 40.5004 148.8 -0.999581 241.2 39.1004" stroke="#7C7C7C" stroke-width="38" stroke-miterlimit="10" stroke-linecap="round"/>
<path d="M338.1 272C283.7 228.5 275.8 165 292.9 108.9C313.8 40.4998 426.3 -23.7002 463.1 74.3998" stroke="#7C7C7C" stroke-width="38" stroke-miterlimit="10" stroke-linecap="round"/>
<path d="M1653.1 272C1608.6 218.7 1603.4 209.2 1604.2 148.1C1605.7 31.3002 1689.2 -9.09983 1729.8 67.5002" stroke="#7C7C7C" stroke-width="38" stroke-miterlimit="10" stroke-linecap="round"/>
<path d="M1390.1 272C1335.7 228.5 1369.5 201.5 1392.5 147.5C1428.5 63.1999 1400.9 15.3999 1346.5 34.5999" stroke="#7C7C7C" stroke-width="38" stroke-miterlimit="10" stroke-linecap="round"/>
</svg>
